<?xml version="1.0" encoding="UTF-8" standalone="no"?>
<!-- Created with Inkscape (http://www.inkscape.org/) -->
<svg
   xmlns:xml="http://www.w3.org/XML/1998/namespace"
   xmlns:dc="http://purl.org/dc/elements/1.1/"
   xmlns:cc="http://web.resource.org/cc/"
   xmlns:rdf="http://www.w3.org/1999/02/22-rdf-syntax-ns#"
   xmlns:svg="http://www.w3.org/2000/svg"
   xmlns="http://www.w3.org/2000/svg"
   xmlns:sodipodi="http://inkscape.sourceforge.net/DTD/sodipodi-0.dtd"
   xmlns:inkscape="http://www.inkscape.org/namespaces/inkscape"
   sodipodi:docbase="G:\MyDocs\temp\svnlogo"
   sodipodi:docname="svnlogo.svg"
   inkscape:version="0.40+cvs"
   sodipodi:version="0.32"
   version="1.0"
   x="0.00000000"
   y="0.00000000"
   width="157.00900"
   height="94.082001"
   viewBox="0 0 157.009 94.082"
   id="svg2"
   xml:space="preserve"><metadata
   id="metadata24"><rdf:RDF
     id="RDF26"><cc:Work
       id="Work28"
       rdf:about=""><dc:format
         id="format30">image/svg+xml</dc:format><dc:type
         rdf:resource="http://purl.org/dc/dcmitype/StillImage"
         id="type32" /></cc:Work></rdf:RDF></metadata><sodipodi:namedview
   inkscape:current-layer="svg2"
   inkscape:window-y="22"
   inkscape:window-x="-4"
   inkscape:cy="47.041000"
   inkscape:cx="78.504500"
   inkscape:zoom="3.6563848"
   id="base"
   pagecolor="#ffffff"
   bordercolor="#666666"
   borderopacity="1.0"
   inkscape:pageopacity="0.0"
   inkscape:pageshadow="2"
   inkscape:window-width="1152"
   inkscape:window-height="785" />
   <defs
   id="defs84">

		</defs>

		<g
   id="g46">
				<g
   id="Layer_1">
					<!--path
   d="M 129.43800,0.87500000 L 21.475000,0.87500000 L 21.475000,79.637000 L 129.43900,79.637000 L 129.43900,0.87500000 L 129.43800,0.87500000 z "
   style="fill:#809cc9"
   id="path49" /-->
					<g
   id="g51">
						<path
   d="M 130.37200,0.00000000 L 132.03400,6.5830000 C 116.74900,8.7990000 103.14800,11.411000 91.232000,14.420000 C 78.375000,17.667000 68.034000,20.966000 60.207000,24.316000 C 52.363000,27.600000 48.700000,30.268000 49.217000,32.316000 C 49.673000,34.123000 52.952000,34.942000 59.080000,34.769000 C 62.221000,34.711000 67.332000,34.370000 74.415000,33.741000 C 81.498000,33.115000 90.636000,32.205000 101.83000,31.015000 C 122.42900,28.871000 136.59200,27.938000 144.32100,28.215000 C 152.03200,28.425000 156.26500,29.999000 157.00900,32.940000 C 158.01600,36.928000 150.70500,42.271000 135.07800,48.966000 C 119.42100,55.599000 99.198000,62.042000 74.426000,68.298000 C 53.572000,73.563000 35.593000,77.327000 20.487000,79.589000 L 18.842000,73.079000 C 36.710000,70.524000 52.779000,67.446000 67.047000,63.843000 C 80.373000,60.479000 90.641000,57.214000 97.847000,54.044000 C 105.05200,50.875000 108.38000,48.204000 107.83000,46.025000 C 107.35300,44.139000 104.02500,43.176000 97.857000,43.134000 C 94.698000,43.168000 90.347000,43.391000 84.795000,43.802000 C 79.229000,44.216000 72.316000,44.858000 64.056000,45.725000 C 51.242000,47.100000 40.594000,48.140000 32.126000,48.846000 C 23.646000,49.555000 17.325000,49.897000 13.150000,49.876000 C 5.1400000,49.802000 0.76000000,48.256000 0.00000000,45.248000 C -1.0240000,41.187000 5.7400000,36.053000 20.295000,29.845000 C 35.002000,23.577000 54.925000,17.269000 80.090000,10.915000 C 97.494000,6.5210000 114.25400,2.8830000 130.37200,0.00000000 z "
   style="fill:#ffffff"
   id="path53" />
      			</g>
					<g
   id="g55">
						<path
   d="M 26.125000,56.078000 C 26.404000,56.078000 26.646000,56.183000 26.853000,56.394000 C 27.058000,56.599000 27.162000,56.845000 27.162000,57.130000 C 27.162000,57.427000 27.058000,57.678000 26.853000,57.884000 C 26.647000,58.089000 26.399000,58.192000 26.108000,58.192000 C 25.811000,58.192000 25.560000,58.089000 25.355000,57.883000 C 25.149000,57.672000 25.046000,57.421000 25.046000,57.130000 C 25.046000,56.833000 25.149000,56.585000 25.355000,56.385000 C 25.565000,56.181000 25.822000,56.078000 26.125000,56.078000 z M 26.125000,62.881000 C 26.404000,62.881000 26.646000,62.988000 26.853000,63.199000 C 27.058000,63.406000 27.162000,63.655000 27.162000,63.947000 C 27.162000,64.239000 27.058000,64.488000 26.853000,64.695000 C 26.636000,64.896000 26.388000,64.996000 26.108000,64.996000 C 25.960000,64.996000 25.821000,64.969000 25.693000,64.914000 C 25.565000,64.860000 25.452000,64.786000 25.355000,64.691000 C 25.257000,64.596000 25.182000,64.485000 25.127000,64.355000 C 25.072000,64.226000 25.046000,64.087000 25.046000,63.938000 C 25.046000,63.646000 25.149000,63.396000 25.355000,63.190000 C 25.565000,62.984000 25.822000,62.881000 26.125000,62.881000 z "
   style="fill:#ffffff"
   id="path57" />
						<path
   d="M 29.779000,56.078000 C 30.059000,56.078000 30.301000,56.183000 30.507000,56.394000 C 30.713000,56.599000 30.816000,56.845000 30.816000,57.130000 C 30.816000,57.427000 30.713000,57.678000 30.507000,57.884000 C 30.302000,58.089000 30.054000,58.192000 29.763000,58.192000 C 29.466000,58.192000 29.214000,58.089000 29.009000,57.883000 C 28.803000,57.672000 28.700000,57.421000 28.700000,57.130000 C 28.700000,56.833000 28.803000,56.585000 29.009000,56.385000 C 29.220000,56.181000 29.477000,56.078000 29.779000,56.078000 z M 29.779000,62.881000 C 30.059000,62.881000 30.301000,62.988000 30.507000,63.199000 C 30.713000,63.406000 30.816000,63.655000 30.816000,63.947000 C 30.816000,64.239000 30.713000,64.488000 30.507000,64.695000 C 30.290000,64.896000 30.042000,64.996000 29.763000,64.996000 C 29.615000,64.996000 29.476000,64.969000 29.347000,64.914000 C 29.219000,64.860000 29.106000,64.786000 29.009000,64.691000 C 28.912000,64.596000 28.836000,64.485000 28.782000,64.355000 C 28.727000,64.226000 28.700000,64.087000 28.700000,63.938000 C 28.700000,63.646000 28.803000,63.396000 29.009000,63.190000 C 29.220000,62.984000 29.477000,62.881000 29.779000,62.881000 z "
   style="fill:#ffffff"
   id="path59" />
					</g>
				</g>
			</g>
	</svg>